<svg width="16" height="15" viewBox="0 0 16 15" fill="none" xmlns="http://www.w3.org/2000/svg">
<path d="M8.35861 9.84798L10.2767 7.92987C10.412 7.79462 10.4796 7.62248 10.4796 7.41346C10.4796 7.20443 10.412 7.0323 10.2767 6.89705L8.34017 4.9605C8.20492 4.82525 8.03598 4.76057 7.83335 4.76647C7.63022 4.77287 7.46104 4.84369 7.32579 4.97894C7.19054 5.11419 7.12291 5.28633 7.12291 5.49535C7.12291 5.70438 7.19054 5.87652 7.32579 6.01177L7.98975 6.67573H5.61056C5.40154 6.67573 5.2294 6.7463 5.09415 6.88745C4.9589 7.0291 4.89127 7.20443 4.89127 7.41346C4.89127 7.62248 4.96209 7.79757 5.10374 7.93872C5.24489 8.08037 5.41998 8.15119 5.629 8.15119H7.98975L7.30734 8.83359C7.17209 8.96885 7.10742 9.13803 7.11332 9.34115C7.11971 9.54378 7.19054 9.71273 7.32579 9.84798C7.46104 9.98323 7.63318 10.0509 7.8422 10.0509C8.05122 10.0509 8.22336 9.98323 8.35861 9.84798ZM7.8422 14.7908C6.82167 14.7908 5.86262 14.597 4.96504 14.2095C4.06747 13.8224 3.2867 13.2969 2.62274 12.6329C1.95878 11.969 1.43327 11.1882 1.04621 10.2906C0.658652 9.39304 0.464874 8.43399 0.464874 7.41346C0.464874 6.39293 0.658652 5.43388 1.04621 4.5363C1.43327 3.63873 1.95878 2.85796 2.62274 2.194C3.2867 1.53004 4.06747 1.00428 4.96504 0.616728C5.86262 0.229665 6.82167 0.0361328 7.8422 0.0361328C8.86273 0.0361328 9.82178 0.229665 10.7194 0.616728C11.6169 1.00428 12.3977 1.53004 13.0617 2.194C13.7256 2.85796 14.2511 3.63873 14.6382 4.5363C15.0257 5.43388 15.2195 6.39293 15.2195 7.41346C15.2195 8.43399 15.0257 9.39304 14.6382 10.2906C14.2511 11.1882 13.7256 11.969 13.0617 12.6329C12.3977 13.2969 11.6169 13.8224 10.7194 14.2095C9.82178 14.597 8.86273 14.7908 7.8422 14.7908Z" fill="white"/>
</svg>
