<svg width="19" height="20" viewBox="0 0 19 20" fill="none" xmlns="http://www.w3.org/2000/svg">
<path d="M9.50139 0.861816C4.36196 0.861816 0.190826 5.03295 0.190826 10.1724C0.190826 15.3118 4.36196 19.4829 9.50139 19.4829C14.6408 19.4829 18.812 15.3118 18.812 10.1724C18.812 5.03295 14.6408 0.861816 9.50139 0.861816ZM9.50139 17.6208C5.39543 17.6208 2.05294 14.2783 2.05294 10.1724C2.05294 6.06642 5.39543 2.72393 9.50139 2.72393C13.6074 2.72393 16.9498 6.06642 16.9498 10.1724C16.9498 14.2783 13.6074 17.6208 9.50139 17.6208ZM4.38058 15.2932L11.3728 12.0438L14.6222 5.05157L7.62997 8.30096L4.38058 15.2932ZM9.50139 9.14822C10.0693 9.14822 10.5256 9.60444 10.5256 10.1724C10.5256 10.7403 10.0693 11.1965 9.50139 11.1965C8.93345 11.1965 8.47723 10.7403 8.47723 10.1724C8.47723 9.60444 8.93345 9.14822 9.50139 9.14822Z" fill="#6B7280"/>
</svg>
