<svg width="21" height="17" viewBox="0 0 21 17" fill="none" xmlns="http://www.w3.org/2000/svg">
<path fill-rule="evenodd" clip-rule="evenodd" d="M0.133057 8.4783C0.133057 8.4783 4.02431 0.695801 10.5097 0.695801C16.9951 0.695801 20.8864 8.4783 20.8864 8.4783C20.8864 8.4783 16.9951 16.2608 10.5097 16.2608C4.02431 16.2608 0.133057 8.4783 0.133057 8.4783ZM2.48078 8.64692C2.44587 8.59091 2.41128 8.5347 2.37701 8.4783L2.48337 8.30968C2.90622 7.64817 3.52882 6.77004 4.32523 5.90229C5.96215 4.11361 8.0712 2.64143 10.5097 2.64143C12.9456 2.64143 15.0573 4.11361 16.6968 5.90229C17.4221 6.70017 18.0734 7.5624 18.6424 8.4783C18.0707 9.39305 17.4187 10.2551 16.6942 11.0543C15.0573 12.843 12.9482 14.3152 10.5097 14.3152C8.0738 14.3152 5.96215 12.843 4.32263 11.0543C3.64125 10.3058 3.02506 9.50037 2.48078 8.64692ZM14.401 8.4783C14.4007 9.29744 14.142 10.0956 13.6616 10.7591C13.1812 11.4226 12.5037 11.9176 11.7256 12.1736C10.9475 12.4295 10.1084 12.4334 9.32796 12.1846C8.54751 11.9358 7.86547 11.4471 7.379 10.7881C6.89253 10.129 6.62644 9.33327 6.61865 8.51417C6.61085 7.69506 6.86175 6.89439 7.33559 6.2262C7.80943 5.55802 8.48205 5.05641 9.25763 4.79284C10.0332 4.52926 10.8722 4.51716 11.655 4.75826C11.3684 4.88799 11.1174 5.0853 10.9238 5.33329C10.7301 5.58127 10.5995 5.87253 10.5431 6.18209C10.4867 6.49165 10.5062 6.81027 10.5999 7.11062C10.6937 7.41098 10.8589 7.68412 11.0814 7.90661C11.3039 8.1291 11.577 8.29432 11.8774 8.38808C12.1778 8.48184 12.4964 8.50136 12.8059 8.44496C13.1155 8.38856 13.4067 8.25792 13.6547 8.06424C13.9027 7.87057 14.1 7.61964 14.2298 7.33297C14.3436 7.70407 14.4013 8.09012 14.401 8.4783Z" fill="white"/>
</svg>
