<svg width="14" height="18" viewBox="0 0 14 18" fill="none" xmlns="http://www.w3.org/2000/svg">
<path d="M7.00004 13.6668C6.55801 13.6668 6.13409 13.4912 5.82153 13.1787C5.50897 12.8661 5.33337 12.4422 5.33337 12.0002C5.33337 11.0752 6.07504 10.3335 7.00004 10.3335C7.44207 10.3335 7.86599 10.5091 8.17855 10.8217C8.49111 11.1342 8.66671 11.5581 8.66671 12.0002C8.66671 12.4422 8.49111 12.8661 8.17855 13.1787C7.86599 13.4912 7.44207 13.6668 7.00004 13.6668ZM12 16.1668V7.8335H2.00004V16.1668H12ZM12 6.16683C12.4421 6.16683 12.866 6.34242 13.1786 6.65498C13.4911 6.96755 13.6667 7.39147 13.6667 7.8335V16.1668C13.6667 16.6089 13.4911 17.0328 13.1786 17.3453C12.866 17.6579 12.4421 17.8335 12 17.8335H2.00004C1.55801 17.8335 1.13409 17.6579 0.821529 17.3453C0.508969 17.0328 0.333374 16.6089 0.333374 16.1668V7.8335C0.333374 6.9085 1.07504 6.16683 2.00004 6.16683H2.83337V4.50016C2.83337 3.39509 3.27236 2.33529 4.05376 1.55388C4.83516 0.772483 5.89497 0.333496 7.00004 0.333496C7.54721 0.333496 8.08903 0.44127 8.59455 0.650665C9.10008 0.860059 9.55941 1.16697 9.94632 1.55388C10.3332 1.9408 10.6401 2.40013 10.8495 2.90565C11.0589 3.41117 11.1667 3.95299 11.1667 4.50016V6.16683H12ZM7.00004 2.00016C6.337 2.00016 5.70111 2.26355 5.23227 2.7324C4.76343 3.20124 4.50004 3.83712 4.50004 4.50016V6.16683H9.50004V4.50016C9.50004 3.83712 9.23665 3.20124 8.76781 2.7324C8.29897 2.26355 7.66308 2.00016 7.00004 2.00016Z" fill="#9CA3AF"/>
</svg>
