<svg width="29" height="29" viewBox="0 0 29 29" fill="none" xmlns="http://www.w3.org/2000/svg">
<path d="M1.8125 8.60938C1.8125 7.52779 2.24216 6.4905 3.00696 5.72571C3.77175 4.96091 4.80904 4.53125 5.89062 4.53125H23.1094C24.191 4.53125 25.2282 4.96091 25.993 5.72571C26.7578 6.4905 27.1875 7.52779 27.1875 8.60938V20.3906C27.1875 21.4722 26.7578 22.5095 25.993 23.2743C25.2282 24.0391 24.191 24.4688 23.1094 24.4688H5.89062C4.80904 24.4688 3.77175 24.0391 3.00696 23.2743C2.24216 22.5095 1.8125 21.4722 1.8125 20.3906V8.60938ZM5.89062 6.34375C5.28974 6.34375 4.71347 6.58245 4.28859 7.00734C3.8637 7.43222 3.625 8.00849 3.625 8.60938V9.96875H25.375V8.60938C25.375 8.00849 25.1363 7.43222 24.7114 7.00734C24.2865 6.58245 23.7103 6.34375 23.1094 6.34375H5.89062ZM3.625 20.3906C3.625 20.9915 3.8637 21.5678 4.28859 21.9927C4.71347 22.4176 5.28974 22.6562 5.89062 22.6562H23.1094C23.7103 22.6562 24.2865 22.4176 24.7114 21.9927C25.1363 21.5678 25.375 20.9915 25.375 20.3906V11.7812H3.625V20.3906ZM19.0312 17.2188H21.75C21.9904 17.2188 22.2209 17.3142 22.3908 17.4842C22.5608 17.6541 22.6562 17.8846 22.6562 18.125C22.6562 18.3654 22.5608 18.5959 22.3908 18.7658C22.2209 18.9358 21.9904 19.0312 21.75 19.0312H19.0312C18.7909 19.0312 18.5604 18.9358 18.3904 18.7658C18.2205 18.5959 18.125 18.3654 18.125 18.125C18.125 17.8846 18.2205 17.6541 18.3904 17.4842C18.5604 17.3142 18.7909 17.2188 19.0312 17.2188Z" fill="white"/>
</svg>
