<svg width="23" height="23" viewBox="0 0 23 23" fill="none" xmlns="http://www.w3.org/2000/svg">
<path d="M11.5 22.375C10.2111 22.375 8.99271 22.1635 7.84479 21.7406C6.69688 21.3177 5.65972 20.7337 4.73333 19.9885L3.19271 21.5292C2.95104 21.7708 2.6691 21.8864 2.34688 21.876C2.02465 21.8663 1.74271 21.7406 1.50104 21.499C1.25937 21.2573 1.13854 20.9701 1.13854 20.6374C1.13854 20.3055 1.25937 20.0188 1.50104 19.7771L3.01146 18.2667C2.26632 17.3403 1.68229 16.2979 1.25938 15.1395C0.836458 13.9819 0.625 12.7688 0.625 11.5C0.625 8.47917 1.68753 5.91146 3.81258 3.79688C5.93683 1.68229 8.49931 0.625 11.5 0.625H19.9583C20.6229 0.625 21.192 0.86143 21.6657 1.33429C22.1386 1.80796 22.375 2.37708 22.375 3.04167V11.5C22.375 14.5007 21.3177 17.0636 19.2031 19.1886C17.0885 21.3129 14.5208 22.375 11.5 22.375ZM11.5 19.9583C13.8563 19.9583 15.8548 19.1326 17.4958 17.4813C19.1375 15.8299 19.9583 13.8361 19.9583 11.5V3.04167H11.5C9.16389 3.04167 7.17014 3.86213 5.51875 5.50304C3.86736 7.14476 3.04167 9.14375 3.04167 11.5C3.04167 13.8361 3.86736 15.8299 5.51875 17.4813C7.17014 19.1326 9.16389 19.9583 11.5 19.9583ZM9.89896 17.3906L16.1521 11.8021C16.3535 11.6208 16.4139 11.4041 16.3333 11.152C16.2528 10.9007 16.0715 10.7549 15.7896 10.7146L10.8958 10.2313L13.826 6.21354C13.9066 6.11285 13.9416 6.00692 13.9312 5.89575C13.9215 5.78539 13.8764 5.67986 13.7958 5.57917C13.6951 5.47847 13.5795 5.42813 13.449 5.42813C13.3177 5.42813 13.2017 5.47847 13.101 5.57917L6.87813 11.1677C6.67674 11.349 6.61632 11.5653 6.69688 11.8166C6.77743 12.0687 6.95868 12.2149 7.24063 12.2552L12.1344 12.7385L9.17396 16.7563C9.11354 16.8569 9.08333 16.9629 9.08333 17.074C9.08333 17.1844 9.13368 17.2899 9.23438 17.3906C9.33507 17.4913 9.44583 17.5417 9.56667 17.5417C9.6875 17.5417 9.79827 17.4913 9.89896 17.3906Z" fill="white"/>
</svg>
