<svg width="17" height="18" viewBox="0 0 17 18" fill="none" xmlns="http://www.w3.org/2000/svg">
<path d="M8.49981 17.552C7.50668 17.552 6.56787 17.3891 5.68336 17.0632C4.79886 16.7373 3.9997 16.2873 3.28589 15.7132L2.0988 16.9002C1.91258 17.0865 1.69534 17.1755 1.44706 17.1675C1.19877 17.16 0.981528 17.0632 0.795316 16.877C0.609105 16.6908 0.515999 16.4695 0.515999 16.2131C0.515999 15.9574 0.609105 15.7364 0.795316 15.5502L1.95914 14.3864C1.38499 13.6726 0.934975 12.8694 0.609105 11.9768C0.283235 11.0849 0.1203 10.1501 0.1203 9.17248C0.1203 6.84484 0.93901 4.86634 2.57643 3.23699C4.21323 1.60764 6.18769 0.792969 8.49981 0.792969H15.0172C15.5293 0.792969 15.9678 0.975145 16.3328 1.3395C16.6971 1.70447 16.8793 2.143 16.8793 2.65508V9.17248C16.8793 11.4846 16.0646 13.4594 14.4353 15.0968C12.8059 16.7336 10.8275 17.552 8.49981 17.552ZM8.49981 15.6899C10.3154 15.6899 11.8553 15.0537 13.1197 13.7812C14.3847 12.5088 15.0172 10.9725 15.0172 9.17248V2.65508H8.49981C6.69977 2.65508 5.16352 3.28727 3.89108 4.55165C2.61864 5.81664 1.98241 7.35692 1.98241 9.17248C1.98241 10.9725 2.61864 12.5088 3.89108 13.7812C5.16352 15.0537 6.69977 15.6899 8.49981 15.6899ZM7.26616 13.7114L12.0844 9.40524C12.2396 9.26558 12.2861 9.09862 12.224 8.90434C12.162 8.71068 12.0223 8.59833 11.8051 8.56729L8.03428 8.19487L10.2921 5.09911C10.3542 5.02152 10.3812 4.9399 10.3731 4.85424C10.3656 4.7692 10.3309 4.68789 10.2688 4.6103C10.1912 4.53271 10.1022 4.49392 10.0016 4.49392C9.90043 4.49392 9.81105 4.53271 9.73346 4.6103L4.93852 8.91644C4.78334 9.0561 4.73679 9.22276 4.79886 9.41642C4.86093 9.6107 5.00059 9.72335 5.21784 9.75439L8.98862 10.1268L6.70753 13.2226C6.66097 13.3002 6.6377 13.3818 6.6377 13.4674C6.6377 13.5525 6.67649 13.6338 6.75408 13.7114C6.83167 13.789 6.91701 13.8278 7.01012 13.8278C7.10323 13.8278 7.18857 13.789 7.26616 13.7114Z" fill="#6B7280"/>
</svg>
