<svg width="11" height="12" viewBox="0 0 11 12" fill="none" xmlns="http://www.w3.org/2000/svg">
<path d="M8.42188 6C8.42188 6.57789 8.25051 7.14281 7.92945 7.62331C7.60839 8.10381 7.15206 8.47831 6.61815 8.69946C6.08425 8.92061 5.49676 8.97847 4.92997 8.86573C4.36318 8.75299 3.84255 8.47471 3.43392 8.06608C3.02529 7.65745 2.74701 7.13682 2.63427 6.57003C2.52153 6.00324 2.57939 5.41575 2.80054 4.88185C3.02169 4.34794 3.39619 3.89161 3.87669 3.57055C4.35719 3.24949 4.92211 3.07812 5.5 3.07812C6.27458 3.07926 7.01711 3.38747 7.56482 3.93518C8.11253 4.48289 8.42074 5.22542 8.42188 6ZM5.5 2.39062C5.59117 2.39062 5.6786 2.35441 5.74307 2.28994C5.80753 2.22548 5.84375 2.13804 5.84375 2.04688V1.1875C5.84375 1.09633 5.80753 1.0089 5.74307 0.944432C5.6786 0.879966 5.59117 0.84375 5.5 0.84375C5.40883 0.84375 5.3214 0.879966 5.25693 0.944432C5.19247 1.0089 5.15625 1.09633 5.15625 1.1875V2.04688C5.15625 2.13804 5.19247 2.22548 5.25693 2.28994C5.3214 2.35441 5.40883 2.39062 5.5 2.39062ZM2.46211 3.44766C2.52709 3.51091 2.6142 3.54631 2.70488 3.54631C2.79557 3.54631 2.88267 3.51091 2.94766 3.44766C3.01194 3.38321 3.04804 3.29591 3.04804 3.20488C3.04804 3.11386 3.01194 3.02655 2.94766 2.96211L2.3418 2.35195C2.31098 2.3144 2.27263 2.28371 2.22924 2.26187C2.18584 2.24003 2.13836 2.22751 2.08983 2.22513C2.04131 2.22275 1.99282 2.23055 1.9475 2.24803C1.90217 2.26552 1.86101 2.2923 1.82665 2.32665C1.7923 2.36101 1.76552 2.40217 1.74803 2.4475C1.73055 2.49282 1.72275 2.54131 1.72513 2.58983C1.72751 2.63836 1.74003 2.68584 1.76187 2.72924C1.78371 2.77263 1.8144 2.81098 1.85195 2.8418L2.46211 3.44766ZM1.89062 6C1.89062 5.90883 1.85441 5.8214 1.78994 5.75693C1.72548 5.69247 1.63804 5.65625 1.54688 5.65625H0.6875C0.596332 5.65625 0.508898 5.69247 0.444432 5.75693C0.379966 5.8214 0.34375 5.90883 0.34375 6C0.34375 6.09117 0.379966 6.1786 0.444432 6.24307C0.508898 6.30753 0.596332 6.34375 0.6875 6.34375H1.54688C1.63804 6.34375 1.72548 6.30753 1.78994 6.24307C1.85441 6.1786 1.89062 6.09117 1.89062 6ZM2.46211 8.55234L1.85195 9.1582C1.7874 9.22338 1.75119 9.3114 1.75119 9.40312C1.75119 9.49485 1.7874 9.58287 1.85195 9.64805C1.91841 9.71039 2.00576 9.74564 2.09687 9.74687C2.18815 9.74649 2.27581 9.71112 2.3418 9.64805L2.94766 9.03789C3.0069 8.9725 3.03874 8.88683 3.03657 8.79862C3.03439 8.71041 2.99838 8.62641 2.93599 8.56401C2.87359 8.50162 2.78959 8.46561 2.70138 8.46343C2.61317 8.46126 2.5275 8.49309 2.46211 8.55234ZM5.5 9.60938C5.40883 9.60938 5.3214 9.64559 5.25693 9.71006C5.19247 9.77452 5.15625 9.86196 5.15625 9.95312V10.8125C5.15625 10.9037 5.19247 10.9911 5.25693 11.0556C5.3214 11.12 5.40883 11.1562 5.5 11.1562C5.59117 11.1562 5.6786 11.12 5.74307 11.0556C5.80753 10.9911 5.84375 10.9037 5.84375 10.8125V9.95312C5.84375 9.86196 5.80753 9.77452 5.74307 9.71006C5.6786 9.64559 5.59117 9.60938 5.5 9.60938ZM8.53789 8.55234C8.4725 8.49309 8.38683 8.46126 8.29862 8.46343C8.21041 8.46561 8.12641 8.50162 8.06401 8.56401C8.00162 8.62641 7.96561 8.71041 7.96343 8.79862C7.96126 8.88683 7.99309 8.9725 8.05234 9.03789L8.6582 9.64805C8.72419 9.71112 8.81184 9.74649 8.90312 9.74687C8.99424 9.74564 9.08159 9.71039 9.14805 9.64805C9.2126 9.58287 9.24881 9.49485 9.24881 9.40312C9.24881 9.3114 9.2126 9.22338 9.14805 9.1582L8.53789 8.55234ZM10.3125 5.65625H9.45312C9.36196 5.65625 9.27452 5.69247 9.21006 5.75693C9.14559 5.8214 9.10938 5.90883 9.10938 6C9.10938 6.09117 9.14559 6.1786 9.21006 6.24307C9.27452 6.30753 9.36196 6.34375 9.45312 6.34375H10.3125C10.4037 6.34375 10.4911 6.30753 10.5556 6.24307C10.62 6.1786 10.6562 6.09117 10.6562 6C10.6562 5.90883 10.62 5.8214 10.5556 5.75693C10.4911 5.69247 10.4037 5.65625 10.3125 5.65625ZM8.29727 3.54648C8.34194 3.54688 8.38624 3.53834 8.42756 3.52137C8.46888 3.5044 8.50639 3.47933 8.53789 3.44766L9.14805 2.8418C9.20286 2.77501 9.23088 2.69022 9.22664 2.60392C9.2224 2.51762 9.18621 2.43598 9.12512 2.37488C9.06402 2.31379 8.98238 2.2776 8.89608 2.27336C8.80978 2.26912 8.72499 2.29714 8.6582 2.35195L8.05234 2.96211C7.98806 3.02655 7.95196 3.11386 7.95196 3.20488C7.95196 3.29591 7.98806 3.38321 8.05234 3.44766C8.08435 3.47986 8.12256 3.50522 8.16466 3.52221C8.20676 3.5392 8.25188 3.54746 8.29727 3.54648Z" fill="#FBBF24"/>
</svg>
