<svg width="21" height="21" viewBox="0 0 21 21" fill="none" xmlns="http://www.w3.org/2000/svg">
<path fill-rule="evenodd" clip-rule="evenodd" d="M10.4013 0C4.65695 0 0 4.65695 0 10.4013C0 16.1457 4.65695 20.8026 10.4013 20.8026C16.1457 20.8026 20.8026 16.1457 20.8026 10.4013C20.8026 4.65695 16.1457 0 10.4013 0ZM1.89115 10.4013C1.89115 12.3776 2.56534 14.1969 3.6953 15.6417C4.48886 14.5996 5.5126 13.755 6.68656 13.174C7.86053 12.593 9.15292 12.2913 10.4628 12.2925C11.7557 12.2912 13.0318 12.5851 14.1939 13.1518C15.3561 13.7184 16.3735 14.5429 17.1688 15.5623C17.9881 14.4877 18.5397 13.2335 18.7781 11.9034C19.0164 10.5734 18.9346 9.20567 18.5394 7.9135C18.1442 6.62132 17.447 5.44182 16.5055 4.4726C15.5639 3.50338 14.4051 2.77229 13.1249 2.33983C11.8447 1.90737 10.48 1.78597 9.14357 1.98568C7.80715 2.18539 6.5375 2.70046 5.43967 3.48827C4.34184 4.27609 3.44738 5.314 2.83032 6.51614C2.21326 7.71827 1.89132 9.05006 1.89115 10.4013ZM10.4013 18.9115C8.44771 18.9144 6.55308 18.2423 5.03802 17.009C5.64785 16.136 6.45954 15.4232 7.40403 14.9313C8.34852 14.4393 9.39786 14.1829 10.4628 14.1836C11.5144 14.1828 12.5511 14.4328 13.4867 14.9131C14.4222 15.3933 15.2298 16.0898 15.8422 16.9447C14.3153 18.2181 12.3895 18.9143 10.4013 18.9115Z" fill="white"/>
</svg>
